<svg xmlns="http://www.w3.org/2000/svg" version="1.1" xmlns:xlink="http://www.w3.org/1999/xlink" xmlns:svgjs="http://svgjs.dev/svgjs" width="1500" height="990" viewBox="0 0 1500 990"><g transform="matrix(1,0,0,1,-0.2817383194555987,0.40080971659915576)"><svg viewBox="0 0 374 247" data-background-color="#ffffff" preserveAspectRatio="xMidYMid meet" height="990" width="1500" xmlns="http://www.w3.org/2000/svg" xmlns:xlink="http://www.w3.org/1999/xlink"><g id="tight-bounds" transform="matrix(1,0,0,1,0.0702467543175942,-0.09999999999999432)"><svg viewBox="0 0 373.8595064913648 247.2" height="247.2" width="373.8595064913648"><g><svg viewBox="0 0 373.8595064913648 247.2" height="247.2" width="373.8595064913648"><g><svg viewBox="0 0 373.85950649136487 247.20000000000002" height="247.2" width="373.8595064913648"><g transform="matrix(1,0,0,1,159.8260803075209,0)"><svg viewBox="0 0 214.033426183844 247.20000000000002" height="247.20000000000002" width="214.033426183844"><g id="textblocktransform"><svg viewBox="0 0 214.033426183844 247.20000000000002" height="247.20000000000002" width="214.033426183844" id="textblock"><g><svg viewBox="0 0 214.033426183844 247.20000000000002" height="247.20000000000002" width="214.033426183844"><g transform="matrix(1,0,0,1,0,0)"><svg width="214.033426183844" viewBox="0.800000000000002 -34.349999999999994 93.25000000000001 94.9" height="247.20000000000002" data-palette-color="#ff557a"><svg></svg><svg></svg><g class="wordmark-text-0" data-fill-palette-color="primary" id="text-0"><path d="M3-4.5v0c0-0.6 0.06-1.15 0.18-1.65 0.113-0.5 0.27-0.75 0.47-0.75v0c0.233 0 0.4 0.467 0.5 1.4v0c0 0.467 0.1 1.117 0.3 1.95 0.2 0.833 0.533 1.79 1 2.87 0.467 1.087 1.033 2.107 1.7 3.06 0.667 0.947 1.533 1.747 2.6 2.4 1.067 0.647 2.217 0.97 3.45 0.97v0c0.233 0 0.467-0.017 0.7-0.05v0c1.167-0.1 2.317-0.617 3.45-1.55 1.133-0.933 2.2-2.223 3.2-3.87 1-1.653 1.933-3.357 2.8-5.11 0.867-1.747 1.717-3.787 2.55-6.12 0.833-2.333 1.527-4.333 2.08-6 0.547-1.667 1.147-3.56 1.8-5.68 0.647-2.113 1.087-3.537 1.32-4.27v0c-3.733-1.633-7.123-2.893-10.17-3.78-3.053-0.88-6.213-1.32-9.48-1.32v0c-6.033 0-9.05 1.75-9.05 5.25v0c0 1.1 0.26 2.273 0.78 3.52 0.513 1.253 1.18 2.42 2 3.5 0.813 1.087 1.597 2.047 2.35 2.88 0.747 0.833 1.487 1.55 2.22 2.15v0c0.967 0.867 2.16 1.667 3.58 2.4 1.413 0.733 2.22 1.167 2.42 1.3v0c0.267 0.167 0.367 0.323 0.3 0.47-0.067 0.153-0.267 0.197-0.6 0.13v0c-2.733-0.6-5.083-1.75-7.05-3.45v0c-1.933-1.667-3.683-3.71-5.25-6.13-1.567-2.413-2.35-4.803-2.35-7.17v0c0-2.167 0.8-3.91 2.4-5.23 1.6-1.313 3.933-1.97 7-1.97v0c1.833 0 3.76 0.207 5.78 0.62 2.013 0.42 3.553 0.813 4.62 1.18 1.067 0.367 2.95 1.09 5.65 2.17 2.7 1.087 4.467 1.78 5.3 2.08v0c0.867-2.5 1.417-3.767 1.65-3.8v0c0.067 0 0.133-0.01 0.2-0.03 0.067-0.013 0.127-0.02 0.18-0.02 0.047 0 0.097-0.01 0.15-0.03 0.047-0.013 0.103-0.02 0.17-0.02v0c0.2 0 0.383 0.033 0.55 0.1 0.167 0.067 0.31 0.133 0.43 0.2 0.113 0.067 0.237 0.183 0.37 0.35 0.133 0.167 0.223 0.29 0.27 0.37 0.053 0.087 0.163 0.253 0.33 0.5 0.167 0.253 0.267 0.413 0.3 0.48v0c0.033 0.1 0.067 0.207 0.1 0.32 0.033 0.12 0.067 0.22 0.1 0.3 0.033 0.087 0.06 0.17 0.08 0.25 0.013 0.087 0.02 0.18 0.02 0.28v0c0 0.133-0.033 0.25-0.1 0.35-0.067 0.1-0.15 0.15-0.25 0.15v0c-0.267 0-0.65-0.233-1.15-0.7v0c-0.133-0.2-0.267-0.3-0.4-0.3v0c-0.167 0-0.35 0.14-0.55 0.42-0.2 0.287-0.36 0.58-0.48 0.88-0.113 0.3-0.17 0.517-0.17 0.65v0c1.867 0.8 3.61 1.423 5.23 1.87 1.613 0.453 2.953 0.68 4.02 0.68v0c1.067 0 1.767-0.233 2.1-0.7v0c0.2-0.267 0.483-0.4 0.85-0.4v0c0.367 0 0.55 0.133 0.55 0.4v0c0 0.333-0.233 0.733-0.7 1.2v0c-0.8 0.833-1.933 1.25-3.4 1.25v0c-2.2 0-5.233-0.933-9.1-2.8v0c-0.4 1.167-0.95 2.983-1.65 5.45-0.7 2.467-1.323 4.633-1.87 6.5-0.553 1.867-1.297 4.007-2.23 6.42-0.933 2.42-1.867 4.47-2.8 6.15-0.933 1.687-2.09 3.263-3.47 4.73-1.387 1.467-2.863 2.483-4.43 3.05v0c-0.867 0.333-1.883 0.5-3.05 0.5v0c-1.667 0-3.283-0.35-4.85-1.05-1.567-0.7-2.767-1.733-3.6-3.1v0c-0.667-1.133-1.157-2.327-1.47-3.58-0.32-1.247-0.48-2.403-0.48-3.47zM51.6-4v0c-0.033 0.033-0.183 0.173-0.45 0.42-0.267 0.253-0.483 0.447-0.65 0.58-0.167 0.133-0.41 0.34-0.73 0.62-0.313 0.287-0.587 0.513-0.82 0.68-0.233 0.167-0.517 0.367-0.85 0.6-0.333 0.233-0.623 0.407-0.87 0.52-0.253 0.12-0.513 0.23-0.78 0.33-0.267 0.1-0.517 0.15-0.75 0.15v0c-0.7 0-1.117-0.417-1.25-1.25v0c0-1.4 0.55-3.983 1.65-7.75v0c-4.467 6.167-7.667 9.25-9.6 9.25v0c-0.8 0-1.2-0.6-1.2-1.8v0c0-1.533 0.457-3.61 1.37-6.23 0.92-2.613 2.047-4.98 3.38-7.1 1.333-2.113 2.5-3.17 3.5-3.17v0h0.15l0.55-0.4c0.3-0.333 0.767-0.5 1.4-0.5v0c0.5 0 1.2 0.133 2.1 0.4 0.9 0.267 1.4 0.4 1.5 0.4v0c0.133 0 0.307-0.133 0.52-0.4 0.22-0.267 0.48-0.4 0.78-0.4v0c0.833 0 1.25 0.367 1.25 1.1v0c0 0.3-0.057 0.633-0.17 1-0.12 0.367-0.287 0.79-0.5 1.27-0.22 0.487-0.347 0.78-0.38 0.88v0c-0.033 0.067-0.193 0.167-0.48 0.3-0.28 0.133-0.437 0.25-0.47 0.35v0c-0.733 2.067-1.383 4.273-1.95 6.62-0.567 2.353-0.85 3.797-0.85 4.33v0c0 0.833 0.233 1.25 0.7 1.25 0.467 0 1.04-0.283 1.72-0.85 0.687-0.567 1.28-1.133 1.78-1.7 0.5-0.567 0.767-0.85 0.8-0.85v0c0.067 0 0.1 0.067 0.1 0.2v0c0 0.5-0.167 0.883-0.5 1.15zM48.45-17.3h-0.15c-0.2 0-0.543-0.033-1.03-0.1-0.48-0.067-0.887-0.1-1.22-0.1v0c-0.467 0-0.967 0.067-1.5 0.2v0c-0.833 0.233-2.2 2.207-4.1 5.92-1.9 3.72-2.85 6.497-2.85 8.33v0c0 0.567 0.167 0.85 0.5 0.85v0c0.7 0 1.943-1.017 3.73-3.05 1.78-2.033 2.953-3.483 3.52-4.35v0c0.833-1.333 1.6-2.777 2.3-4.33 0.7-1.547 1.05-2.57 1.05-3.07v0c0-0.2-0.083-0.3-0.25-0.3zM65.8-17.15v0c-0.067 0.667-0.5 1.617-1.3 2.85-0.8 1.233-1.417 1.85-1.85 1.85v0c-0.133 0-0.2-0.1-0.2-0.3v0c0-0.3 0.183-0.91 0.55-1.83 0.367-0.913 0.55-1.503 0.55-1.77v0c0-0.5-0.3-0.75-0.9-0.75v0c-0.1 0-0.65 0.083-1.65 0.25v0c-0.833 0.2-1.923 0.733-3.27 1.6-1.353 0.867-2.03 1.817-2.03 2.85v0c0 0.367 0.083 0.7 0.25 1v0c0.433 0.867 1.193 1.6 2.28 2.2 1.08 0.6 2.013 1.167 2.8 1.7 0.78 0.533 1.17 1.233 1.17 2.1v0c0 1.467-1.123 2.873-3.37 4.22-2.253 1.353-4.18 2.03-5.78 2.03v0c-0.267 0-0.483-0.107-0.65-0.32-0.167-0.22-0.25-0.447-0.25-0.68v0c0-0.4 0.183-0.6 0.55-0.6v0c1.1 0 2.643-0.343 4.63-1.03 1.98-0.68 2.97-1.42 2.97-2.22v0c0-0.467-0.373-1.017-1.12-1.65-0.753-0.633-1.57-1.217-2.45-1.75-0.887-0.533-1.703-1.177-2.45-1.93-0.753-0.747-1.13-1.47-1.13-2.17v0c0-0.567 0.2-1.1 0.6-1.6v0c0.3-0.367 0.617-0.727 0.95-1.08 0.333-0.347 0.65-0.653 0.95-0.92 0.3-0.267 0.643-0.533 1.03-0.8 0.38-0.267 0.72-0.5 1.02-0.7 0.3-0.2 0.65-0.4 1.05-0.6 0.4-0.2 0.717-0.36 0.95-0.48 0.233-0.113 0.543-0.253 0.93-0.42 0.38-0.167 0.647-0.277 0.8-0.33 0.147-0.047 0.387-0.137 0.72-0.27 0.333-0.133 0.517-0.2 0.55-0.2v0c0.567-0.167 1-0.25 1.3-0.25v0c1.2 0 1.8 0.667 1.8 2zM68.5-18.75h3.2l0.2-0.7c0.1-0.4 0.15-0.683 0.15-0.85v0c0-0.133-0.033-0.26-0.1-0.38-0.067-0.113-0.1-0.22-0.1-0.32 0-0.1 0.05-0.3 0.15-0.6v0c0.667-2.133 1.277-3.55 1.83-4.25 0.547-0.7 1.353-1.05 2.42-1.05v0c0.467 0 0.733 0.15 0.8 0.45v0c-0.733 1.567-1.75 4.133-3.05 7.7v0h4.85c0.933 0 1.4 0.1 1.4 0.3v0c0 0.333-0.767 0.59-2.3 0.77-1.533 0.187-3 0.28-4.4 0.28v0c-1.667 4.7-3.017 9.2-4.05 13.5v0c-0.167 0.667-0.25 1.15-0.25 1.45v0c0 0.567 0.183 0.85 0.55 0.85v0c0.667 0 1.643-0.593 2.93-1.78 1.28-1.18 1.97-1.77 2.07-1.77v0c0.167 0 0.25 0.1 0.25 0.3v0c0 0.567-0.183 0.933-0.55 1.1v0c-3.067 2.767-5.217 4.15-6.45 4.15v0c-0.767 0-1.15-0.483-1.15-1.45v0c0-0.533 0.4-2.1 1.2-4.7v0c0.1-0.333 1.167-4.15 3.2-11.45v0c-0.8 0.133-1.917 0.2-3.35 0.2v0c-0.767 0-1.15-0.15-1.15-0.45v0c0-0.233 0.217-0.51 0.65-0.83 0.433-0.313 0.783-0.47 1.05-0.47zM93.9-19.4v0c0.1 0.167 0.15 0.35 0.15 0.55v0c0 1.333-1.457 4.017-4.37 8.05-2.92 4.033-5.263 7.083-7.03 9.15v0-0.1c-0.033 0-0.073 0.133-0.12 0.4-0.053 0.267-0.13 0.6-0.23 1-0.1 0.4-0.2 0.793-0.3 1.18-0.1 0.38-0.223 0.713-0.37 1-0.153 0.28-0.297 0.42-0.43 0.42-0.133 0-0.31-0.04-0.53-0.12-0.213-0.087-0.337-0.13-0.37-0.13v0c-4.5 6.033-6.75 9.9-6.75 11.6v0c0 0.3 0.067 0.61 0.2 0.93 0.133 0.313 0.2 0.52 0.2 0.62v0c0 0.367-0.2 0.683-0.6 0.95-0.4 0.267-0.8 0.4-1.2 0.4v0c-0.533 0-0.8-0.317-0.8-0.95v0c0-1.2 0.717-3.023 2.15-5.47 1.433-2.453 2.907-4.73 4.42-6.83 1.52-2.1 2.297-3.217 2.33-3.35v0c0.367-1.1 0.55-2.6 0.55-4.5v0c0-2.733-0.257-5.133-0.77-7.2-0.52-2.067-1.23-3.1-2.13-3.1v0c-0.1 0-0.233 0-0.4 0v0l-0.3 0.05c-0.133 0-0.2-0.083-0.2-0.25v0c0-0.267 0.367-0.667 1.1-1.2v0c0.1-0.067 0.383-0.433 0.85-1.1 0.467-0.667 0.817-1 1.05-1v0c0.7 0 1.327 1.073 1.88 3.22 0.547 2.153 0.82 4.547 0.82 7.18v0c0 0.267-0.01 0.667-0.03 1.2-0.013 0.533-0.02 0.933-0.02 1.2v0c0 0.533 0.133 0.8 0.4 0.8v0c0.767 0 2.31-1.767 4.63-5.3 2.313-3.533 3.47-5.783 3.47-6.75v0c0-0.2-0.083-0.3-0.25-0.3v0c-0.067 0-0.183 0.033-0.35 0.1-0.167 0.067-0.3 0.1-0.4 0.1v0c-0.167 0-0.3-0.083-0.4-0.25v0c0-0.433 0.483-0.917 1.45-1.45 0.967-0.533 1.75-0.8 2.35-0.8v0c0.167 0 0.283 0.017 0.35 0.05z" fill="#ff557a" fill-rule="nonzero" stroke="none" stroke-width="1" stroke-linecap="butt" stroke-linejoin="miter" stroke-miterlimit="10" stroke-dasharray="" stroke-dashoffset="0" font-family="none" font-weight="none" font-size="none" text-anchor="none" style="mix-blend-mode: normal" data-fill-palette-color="primary" opacity="1"></path><path transform="translate(0,53.85)" d="M3-4.5v0c0-0.6 0.06-1.15 0.18-1.65 0.113-0.5 0.27-0.75 0.47-0.75v0c0.233 0 0.4 0.467 0.5 1.4v0c0 0.467 0.1 1.117 0.3 1.95 0.2 0.833 0.533 1.79 1 2.87 0.467 1.087 1.033 2.107 1.7 3.06 0.667 0.947 1.533 1.747 2.6 2.4 1.067 0.647 2.217 0.97 3.45 0.97v0c0.233 0 0.467-0.017 0.7-0.05v0c1.167-0.1 2.317-0.617 3.45-1.55 1.133-0.933 2.2-2.223 3.2-3.87 1-1.653 1.933-3.357 2.8-5.11 0.867-1.747 1.717-3.787 2.55-6.12 0.833-2.333 1.527-4.333 2.08-6 0.547-1.667 1.147-3.56 1.8-5.68 0.647-2.113 1.087-3.537 1.32-4.27v0c-3.733-1.633-7.123-2.893-10.17-3.78-3.053-0.88-6.213-1.32-9.48-1.32v0c-6.033 0-9.05 1.75-9.05 5.25v0c0 1.1 0.26 2.273 0.78 3.52 0.513 1.253 1.18 2.42 2 3.5 0.813 1.087 1.597 2.047 2.35 2.88 0.747 0.833 1.487 1.55 2.22 2.15v0c0.967 0.867 2.16 1.667 3.58 2.4 1.413 0.733 2.22 1.167 2.42 1.3v0c0.267 0.167 0.367 0.323 0.3 0.47-0.067 0.153-0.267 0.197-0.6 0.13v0c-2.733-0.6-5.083-1.75-7.05-3.45v0c-1.933-1.667-3.683-3.71-5.25-6.13-1.567-2.413-2.35-4.803-2.35-7.17v0c0-2.167 0.8-3.91 2.4-5.23 1.6-1.313 3.933-1.97 7-1.97v0c1.833 0 3.76 0.207 5.78 0.62 2.013 0.42 3.553 0.813 4.62 1.18 1.067 0.367 2.95 1.09 5.65 2.17 2.7 1.087 4.467 1.78 5.3 2.08v0c0.867-2.5 1.417-3.767 1.65-3.8v0c0.067 0 0.133-0.01 0.2-0.03 0.067-0.013 0.127-0.02 0.18-0.02 0.047 0 0.097-0.01 0.15-0.03 0.047-0.013 0.103-0.02 0.17-0.02v0c0.2 0 0.383 0.033 0.55 0.1 0.167 0.067 0.31 0.133 0.43 0.2 0.113 0.067 0.237 0.183 0.37 0.35 0.133 0.167 0.223 0.29 0.27 0.37 0.053 0.087 0.163 0.253 0.33 0.5 0.167 0.253 0.267 0.413 0.3 0.48v0c0.033 0.1 0.067 0.207 0.1 0.32 0.033 0.12 0.067 0.22 0.1 0.3 0.033 0.087 0.06 0.17 0.08 0.25 0.013 0.087 0.02 0.18 0.02 0.28v0c0 0.133-0.033 0.25-0.1 0.35-0.067 0.1-0.15 0.15-0.25 0.15v0c-0.267 0-0.65-0.233-1.15-0.7v0c-0.133-0.2-0.267-0.3-0.4-0.3v0c-0.167 0-0.35 0.14-0.55 0.42-0.2 0.287-0.36 0.58-0.48 0.88-0.113 0.3-0.17 0.517-0.17 0.65v0c1.867 0.8 3.61 1.423 5.23 1.87 1.613 0.453 2.953 0.68 4.02 0.68v0c1.067 0 1.767-0.233 2.1-0.7v0c0.2-0.267 0.483-0.4 0.85-0.4v0c0.367 0 0.55 0.133 0.55 0.4v0c0 0.333-0.233 0.733-0.7 1.2v0c-0.8 0.833-1.933 1.25-3.4 1.25v0c-2.2 0-5.233-0.933-9.1-2.8v0c-0.4 1.167-0.95 2.983-1.65 5.45-0.7 2.467-1.323 4.633-1.87 6.5-0.553 1.867-1.297 4.007-2.23 6.42-0.933 2.42-1.867 4.47-2.8 6.15-0.933 1.687-2.09 3.263-3.47 4.73-1.387 1.467-2.863 2.483-4.43 3.05v0c-0.867 0.333-1.883 0.5-3.05 0.5v0c-1.667 0-3.283-0.35-4.85-1.05-1.567-0.7-2.767-1.733-3.6-3.1v0c-0.667-1.133-1.157-2.327-1.47-3.58-0.32-1.247-0.48-2.403-0.48-3.47zM51.6-4v0c-0.033 0.033-0.183 0.173-0.45 0.42-0.267 0.253-0.483 0.447-0.65 0.58-0.167 0.133-0.41 0.34-0.73 0.62-0.313 0.287-0.587 0.513-0.82 0.68-0.233 0.167-0.517 0.367-0.85 0.6-0.333 0.233-0.623 0.407-0.87 0.52-0.253 0.12-0.513 0.23-0.78 0.33-0.267 0.1-0.517 0.15-0.75 0.15v0c-0.7 0-1.117-0.417-1.25-1.25v0c0-1.4 0.55-3.983 1.65-7.75v0c-4.467 6.167-7.667 9.25-9.6 9.25v0c-0.8 0-1.2-0.6-1.2-1.8v0c0-1.533 0.457-3.61 1.37-6.23 0.92-2.613 2.047-4.98 3.38-7.1 1.333-2.113 2.5-3.17 3.5-3.17v0h0.15l0.55-0.4c0.3-0.333 0.767-0.5 1.4-0.5v0c0.5 0 1.2 0.133 2.1 0.4 0.9 0.267 1.4 0.4 1.5 0.4v0c0.133 0 0.307-0.133 0.52-0.4 0.22-0.267 0.48-0.4 0.78-0.4v0c0.833 0 1.25 0.367 1.25 1.1v0c0 0.3-0.057 0.633-0.17 1-0.12 0.367-0.287 0.79-0.5 1.27-0.22 0.487-0.347 0.78-0.38 0.88v0c-0.033 0.067-0.193 0.167-0.48 0.3-0.28 0.133-0.437 0.25-0.47 0.35v0c-0.733 2.067-1.383 4.273-1.95 6.62-0.567 2.353-0.85 3.797-0.85 4.33v0c0 0.833 0.233 1.25 0.7 1.25 0.467 0 1.04-0.283 1.72-0.85 0.687-0.567 1.28-1.133 1.78-1.7 0.5-0.567 0.767-0.85 0.8-0.85v0c0.067 0 0.1 0.067 0.1 0.2v0c0 0.5-0.167 0.883-0.5 1.15zM48.45-17.3h-0.15c-0.2 0-0.543-0.033-1.03-0.1-0.48-0.067-0.887-0.1-1.22-0.1v0c-0.467 0-0.967 0.067-1.5 0.2v0c-0.833 0.233-2.2 2.207-4.1 5.92-1.9 3.72-2.85 6.497-2.85 8.33v0c0 0.567 0.167 0.85 0.5 0.85v0c0.7 0 1.943-1.017 3.73-3.05 1.78-2.033 2.953-3.483 3.52-4.35v0c0.833-1.333 1.6-2.777 2.3-4.33 0.7-1.547 1.05-2.57 1.05-3.07v0c0-0.2-0.083-0.3-0.25-0.3zM64.9-31.15v0c-1.833 3.8-3.7 8.39-5.6 13.77-1.9 5.387-3.3 10.097-4.2 14.13v0c-0.033 0.1-0.05 0.233-0.05 0.4v0c0 0.4 0.167 0.6 0.5 0.6v0c0.2 0 0.743-0.25 1.63-0.75 0.88-0.5 1.437-0.75 1.67-0.75v0c0.2 0 0.35 0.067 0.45 0.2v0c0 0.4-0.833 1.14-2.5 2.22-1.667 1.087-2.85 1.63-3.55 1.63v0c-0.633 0-0.95-0.3-0.95-0.9v0c0-0.333 0.067-0.683 0.2-1.05v0c0.867-2.367 1.677-4.717 2.43-7.05 0.747-2.333 1.603-5.11 2.57-8.33 0.967-3.213 1.683-5.587 2.15-7.12v0c0.1-0.3 0.15-0.6 0.15-0.9v0c0-0.133-0.023-0.26-0.07-0.38-0.053-0.113-0.08-0.22-0.08-0.32 0-0.1 0.05-0.3 0.15-0.6v0c0.667-2.1 1.283-3.5 1.85-4.2 0.567-0.7 1.4-1.05 2.5-1.05v0c0.467 0 0.717 0.15 0.75 0.45zM73.55-15.55v0c0.2 1.033 0.3 1.867 0.3 2.5v0c0 0.733-0.25 1.357-0.75 1.87-0.5 0.52-1.15 0.887-1.95 1.1-0.8 0.22-1.517 0.37-2.15 0.45-0.633 0.087-1.233 0.13-1.8 0.13v0c-0.333 0-0.707-0.01-1.12-0.03-0.42-0.013-0.647-0.02-0.68-0.02v0c-1.1 2.8-1.65 5-1.65 6.6v0c0 1.333 0.5 2 1.5 2v0c0.7 0 1.517-0.44 2.45-1.32 0.933-0.887 1.75-1.773 2.45-2.66 0.7-0.88 1.117-1.32 1.25-1.32v0c0.233 0 0.35 0.133 0.35 0.4v0c0 0.933-0.917 2.223-2.75 3.87-1.833 1.653-3.267 2.48-4.3 2.48v0c-0.833 0-1.59-0.26-2.27-0.78-0.687-0.513-1.03-1.37-1.03-2.57v0c0-0.367 0.05-0.8 0.15-1.3v0c0.233-1.267 0.543-2.5 0.93-3.7 0.38-1.2 0.587-1.933 0.62-2.2v0c-0.5-0.133-0.75-0.4-0.75-0.8v0c0-0.367 0.283-0.55 0.85-0.55v0h0.35c1.333-2.633 2.1-4.15 2.3-4.55v0c0.933-1.767 2.717-2.65 5.35-2.65v0c1.133 0 1.917 1.017 2.35 3.05zM71.75-13.15v0c0-0.833-0.083-1.55-0.25-2.15-0.167-0.6-0.357-1.017-0.57-1.25-0.22-0.233-0.447-0.35-0.68-0.35v0c-0.667 0-1.457 0.717-2.37 2.15-0.92 1.433-1.597 2.7-2.03 3.8v0c0.067 0 0.333 0.017 0.8 0.05 0.467 0.033 0.867 0.05 1.2 0.05v0c1.367 0 2.35-0.15 2.95-0.45 0.6-0.3 0.917-0.917 0.95-1.85zM87.4-17.15v0c-0.067 0.667-0.5 1.617-1.3 2.85-0.8 1.233-1.417 1.85-1.85 1.85v0c-0.133 0-0.2-0.1-0.2-0.3v0c0-0.3 0.183-0.91 0.55-1.83 0.367-0.913 0.55-1.503 0.55-1.77v0c0-0.5-0.3-0.75-0.9-0.75v0c-0.1 0-0.65 0.083-1.65 0.25v0c-0.833 0.2-1.923 0.733-3.27 1.6-1.353 0.867-2.03 1.817-2.03 2.85v0c0 0.367 0.083 0.7 0.25 1v0c0.433 0.867 1.193 1.6 2.28 2.2 1.08 0.6 2.013 1.167 2.8 1.7 0.78 0.533 1.17 1.233 1.17 2.1v0c0 1.467-1.123 2.873-3.37 4.22-2.253 1.353-4.18 2.03-5.78 2.03v0c-0.267 0-0.483-0.107-0.65-0.32-0.167-0.22-0.25-0.447-0.25-0.68v0c0-0.4 0.183-0.6 0.55-0.6v0c1.1 0 2.643-0.343 4.63-1.03 1.98-0.68 2.97-1.42 2.97-2.22v0c0-0.467-0.373-1.017-1.12-1.65-0.753-0.633-1.57-1.217-2.45-1.75-0.887-0.533-1.703-1.177-2.45-1.93-0.753-0.747-1.13-1.47-1.13-2.17v0c0-0.567 0.2-1.1 0.6-1.6v0c0.3-0.367 0.617-0.727 0.95-1.08 0.333-0.347 0.65-0.653 0.95-0.92 0.3-0.267 0.643-0.533 1.03-0.8 0.38-0.267 0.72-0.5 1.02-0.7 0.3-0.2 0.65-0.4 1.05-0.6 0.4-0.2 0.717-0.36 0.95-0.48 0.233-0.113 0.543-0.253 0.93-0.42 0.38-0.167 0.647-0.277 0.8-0.33 0.147-0.047 0.387-0.137 0.72-0.27 0.333-0.133 0.517-0.2 0.55-0.2v0c0.567-0.167 1-0.25 1.3-0.25v0c1.2 0 1.8 0.667 1.8 2z" fill="#ff557a" fill-rule="nonzero" stroke="none" stroke-width="1" stroke-linecap="butt" stroke-linejoin="miter" stroke-miterlimit="10" stroke-dasharray="" stroke-dashoffset="0" font-family="none" font-weight="none" font-size="none" text-anchor="none" style="mix-blend-mode: normal" data-fill-palette-color="primary" opacity="1"></path></g></svg></g></svg></g></svg></g></svg></g><g transform="matrix(1,0,0,1,0,64.59796123186794)"><svg viewBox="0 0 132.2726573816156 118.00407753626412" height="118.00407753626412" width="132.2726573816156"><g><svg xmlns="http://www.w3.org/2000/svg" xmlns:xlink="http://www.w3.org/1999/xlink" version="1.1" x="0" y="0" viewBox="8.386999999999999 13.004999999999999 84.192 75.11" enable-background="new 0 0 100 100" xml:space="preserve" height="118.00407753626412" width="132.2726573816156" class="icon-icon-0" data-fill-palette-color="accent" id="icon-0"><g fill="#ea4e70" data-fill-palette-color="accent"><path d="M49.569 22.967c-9.975-5.691-20.677-9.125-31.045-9.962v58.351c10.367 0.814 21.05 4.154 31.045 9.699V22.967z" fill="#ea4e70" data-fill-palette-color="accent"></path><path d="M49.229 84.073c0.814 0.278 1.671 0.29 2.485 0.012 11.657-5.043 23.865-7.313 35.798-6.79V19.524c-1.074-0.048-2.155-0.059-3.24-0.055v53.594l-0.852 0.056c-10.672 0.697-21.732 4.177-32.021 10.048-0.594 0.203-1.237 0.203-1.83 0-10.29-5.871-21.349-9.351-32.021-10.048l-0.854-0.056V19.469c-1.084-0.004-2.166 0.006-3.239 0.055v57.771C25.387 76.771 37.569 79.03 49.229 84.073z" fill="#ea4e70" data-fill-palette-color="accent"></path><path d="M92.579 26.009c-1.07-0.149-2.157-0.228-3.237-0.335v53.55l-0.968-0.056c-12.195-0.699-25.06 1.777-36.975 7.065l-0.916 0.381-0.915-0.381c-11.917-5.288-24.781-7.765-36.976-7.065l-0.967 0.056v-53.55c-1.081 0.108-2.168 0.187-3.238 0.335v58.707c0.594 0.307 1.044 0.748 1.044 0.748 12.951-1.75 26.393-1.536 39.18 2.651 0.588-0.058 1.212-0.095 1.873-0.095 0.661 0 1.285 0.037 1.872 0.095 12.785-4.188 26.229-4.401 39.179-2.651 0 0 0.474-0.462 1.044-0.748V26.009z" fill="#ea4e70" data-fill-palette-color="accent"></path><path d="M65.283 16.667v20.625l-3.98-4.738-4.195 4.738V19.994c-1.924 0.91-3.829 1.901-5.708 2.974v58.087c9.993-5.545 20.679-8.885 31.045-9.699V13.005C76.766 13.464 70.987 14.706 65.283 16.667z" fill="#ea4e70" data-fill-palette-color="accent"></path></g></svg></g></svg></g></svg></g></svg></g><defs></defs></svg><rect width="373.8595064913648" height="247.2" fill="none" stroke="none" visibility="hidden"></rect></g></svg></g></svg>